<?xml version="1.0" encoding="UTF-8" standalone="no"?>
<svg
   id="svg2"
   xml:space="preserve"
   viewBox="0 0 425.12492 425.3125"
   version="1.1"
   sodipodi:docname="projects.svg"
   inkscape:version="1.3.2 (091e20e, 2023-11-25, custom)"
   width="425.12491"
   height="425.3125"
   xmlns:inkscape="http://www.inkscape.org/namespaces/inkscape"
   xmlns:sodipodi="http://sodipodi.sourceforge.net/DTD/sodipodi-0.dtd"
   xmlns:xlink="http://www.w3.org/1999/xlink"
   xmlns="http://www.w3.org/2000/svg"
   xmlns:svg="http://www.w3.org/2000/svg"
   xmlns:rdf="http://www.w3.org/1999/02/22-rdf-syntax-ns#"
   xmlns:cc="http://creativecommons.org/ns#"
   xmlns:dc="http://purl.org/dc/elements/1.1/"><title
   id="title673">https://github.com/Lob2018</title><sodipodi:namedview
   id="namedview1"
   pagecolor="#ffffff"
   bordercolor="#000000"
   borderopacity="0.25"
   inkscape:showpageshadow="2"
   inkscape:pageopacity="0.0"
   inkscape:pagecheckerboard="true"
   inkscape:deskcolor="#d1d1d1"
   showgrid="false"
   inkscape:zoom="1.5454281"
   inkscape:cx="160.47333"
   inkscape:cy="175.35594"
   inkscape:window-width="1920"
   inkscape:window-height="1018"
   inkscape:window-x="-6"
   inkscape:window-y="-6"
   inkscape:window-maximized="1"
   inkscape:current-layer="g2"
   showguides="false"><inkscape:grid
     id="grid2"
     units="px"
     originx="0.0075000002"
     originy="-29.6925"
     spacingx="1"
     spacingy="1"
     empcolor="#0099e5"
     empopacity="0.30196078"
     color="#0099e5"
     opacity="0.14901961"
     empspacing="5"
     dotted="false"
     gridanglex="30"
     gridanglez="30"
     visible="false" /></sodipodi:namedview>
  <defs
   id="defs6"><linearGradient
   id="linearGradient673"
   gradientUnits="userSpaceOnUse"
   gradientTransform="matrix(-3.8e-6,86.543,-86.543,-3.8e-6,401.44,203.81)">
      <stop
   id="stop672"
   stop-color="#fff"
   offset="0"
   style="stop-color:#ffffff;stop-opacity:1;" />
      <stop
   id="stop673"
   stop-color="#fff"
   offset="1" />
    </linearGradient><linearGradient
   id="linearGradient311"
   inkscape:collect="always"><stop
     style="stop-color:#141826;stop-opacity:1;"
     offset="0.58417857"
     id="stop309" /><stop
     style="stop-color:#7b3a5e;stop-opacity:1;"
     offset="0.83367139"
     id="stop310" /><stop
     style="stop-color:#bb7a8b;stop-opacity:1;"
     offset="1"
     id="stop311" /></linearGradient><linearGradient
   id="linearGradient300"
   inkscape:collect="always"><stop
     style="stop-color:#161727;stop-opacity:1;"
     offset="0.58417857"
     id="stop300" /><stop
     style="stop-color:#7b3a5e;stop-opacity:1;"
     offset="0.83367139"
     id="stop302" /><stop
     style="stop-color:#bb7a8b;stop-opacity:1;"
     offset="1"
     id="stop301" /></linearGradient>
    <clipPath
   id="clipPath16">
      <path
   id="path18"
   d="M 0,0 H 800 V 600 H 0 Z" />
    </clipPath>
    <clipPath
   id="clipPath28">
      <path
   id="path30"
   d="M 233.23,277.42 H 568.71 V 132.26 H 233.23 Z" />
    </clipPath>
    <clipPath
   id="clipPath32">
      <path
   id="path34"
   d="M 233.23,132.26 H 568.71 V 277.42 H 233.23 Z" />
    </clipPath>
    <clipPath
   id="clipPath52">
      <path
   id="path54"
   d="m 507.61,388.52 h 17.831 V 370.688 H 507.61 Z" />
    </clipPath>
    <clipPath
   id="clipPath56">
      <path
   id="path58"
   d="m 507.61,370.69 h 17.831 v 17.832 H 507.61 Z" />
    </clipPath>
    <clipPath
   id="clipPath76">
      <path
   id="path78"
   d="m 285.43,413.65 h 17.831 V 395.819 H 285.43 Z" />
    </clipPath>
    <clipPath
   id="clipPath80">
      <path
   id="path82"
   d="m 285.43,395.82 h 17.831 v 17.831 H 285.43 Z" />
    </clipPath>
    <clipPath
   id="clipPath100">
      <path
   id="path102"
   d="m 528.51,357.24 h 11.682 V 345.558 H 528.51 Z" />
    </clipPath>
    <clipPath
   id="clipPath104">
      <path
   id="path106"
   d="m 528.51,345.56 h 11.683 v 11.682 H 528.51 Z" />
    </clipPath>
    <clipPath
   id="clipPath124">
      <path
   id="path126"
   d="m 273.75,370.52 h 11.683 V 358.837 H 273.75 Z" />
    </clipPath>
    <clipPath
   id="clipPath128">
      <path
   id="path130"
   d="m 273.75,358.83 h 11.682 v 11.683 H 273.75 Z" />
    </clipPath>
    <clipPath
   id="clipPath148">
      <path
   id="path150"
   d="m 503.09,321 h 9.031 v -9.031 h -9.031 z" />
    </clipPath>
    <clipPath
   id="clipPath152">
      <path
   id="path154"
   d="m 503.09,311.97 h 9.031 V 321 h -9.031 z" />
    </clipPath>
    <clipPath
   id="clipPath176">
      <path
   id="path178"
   d="m 380.45,290.36 h 42.023 V 203.817 H 380.45 Z" />
    </clipPath>
    <clipPath
   id="clipPath180">
      <path
   id="path182"
   d="m 380.46,203.82 h 42.021 v 86.543 H 380.46 Z" />
    </clipPath>
    <clipPath
   id="clipPath184">
      <path
   id="path186"
   d="m 380.46,290.36 h 42.022 V 203.817 H 380.46 Z" />
    </clipPath>
    <clipPath
   id="clipPath188">
      <path
   id="path190"
   d="m 380.46,290.36 h 42.022 V 203.817 H 380.46 Z" />
    </clipPath>
    <linearGradient
   id="linearGradient196"
   gradientUnits="userSpaceOnUse"
   gradientTransform="matrix(-3.8e-6,86.543,-86.543,-3.8e-6,401.44,203.81)">
      <stop
   id="stop198"
   stop-color="#231f20"
   offset="0" />
      <stop
   id="stop200"
   stop-color="#fff"
   offset="1" />
    </linearGradient>
    <mask
   id="mask202">
      <g
   id="g204">
        <g
   id="g206"
   clip-path="url(#clipPath184)">
          <path
   id="path208"
   d="m 380.46,290.36 h 42.021 V 203.817 H 380.46 Z" />
          <g
   id="g210">
            <g
   id="g214">
              <g
   id="g216"
   clip-path="url(#clipPath188)">
                <g
   id="g218">
                  <g
   id="g220">
                    <g
   id="g222">
                      <g
   id="g224">
                        <path
   id="path226"
   d="m 380.46,290.36 h 42.021 V 203.817 H 380.46 Z"
   fill="url(#linearGradient196)" />
                      </g>
                    </g>
                  </g>
                </g>
              </g>
            </g>
          </g>
        </g>
      </g>
    </mask>
    <clipPath
   id="clipPath228">
      <path
   id="path230"
   d="m 380.46,290.36 h 42.022 V 203.817 H 380.46 Z" />
    </clipPath>
    <linearGradient
   id="linearGradient236"
   gradientUnits="userSpaceOnUse"
   gradientTransform="matrix(-3.8e-6,86.543,-86.543,-3.8e-6,401.44,203.81)">
      <stop
   id="stop238"
   stop-color="#fff"
   offset="0"
   style="stop-color:#ffffff;stop-opacity:1;" />
      <stop
   id="stop240"
   stop-color="#fff"
   offset="1" />
    </linearGradient>
    <clipPath
   id="clipPath280">
      <path
   id="path282"
   d="m 376.94,297.56 h 49.046 v -7.704 H 376.94 Z" />
    </clipPath>
    <clipPath
   id="clipPath284">
      <path
   id="path286"
   d="m 376.94,289.86 h 49.046 v 7.703 H 376.94 Z" />
    </clipPath>
    <clipPath
   id="clipPath344">
      <path
   id="path346"
   d="m 353.81,496.26 h 62.813 V 294.64 H 353.81 Z" />
    </clipPath>
    <clipPath
   id="clipPath348">
      <path
   id="path350"
   d="m 353.81,294.65 h 62.813 V 496.26 H 353.81 Z" />
    </clipPath>
  <clipPath
   clipPathUnits="userSpaceOnUse"
   id="clipPath45572"><path
     d="M 0,1200 H 1200 V 0 H 0 Z"
     id="path45570" /></clipPath><radialGradient
   inkscape:collect="always"
   xlink:href="#linearGradient300"
   id="radialGradient301"
   cx="-170.13499"
   cy="-0.0049999999"
   fx="-170.13499"
   fy="-0.0049999999"
   r="170.13499"
   gradientTransform="scale(1,0.99994122)"
   gradientUnits="userSpaceOnUse" /><radialGradient
   inkscape:collect="always"
   xlink:href="#linearGradient311"
   id="radialGradient309"
   gradientUnits="userSpaceOnUse"
   gradientTransform="matrix(0.9992065,0,0,0.99891292,-0.27,0.17494345)"
   cx="-170.13499"
   cy="-0.0049999999"
   fx="-170.13499"
   fy="-0.0049999999"
   r="170.13499" /><filter
   style="color-interpolation-filters:sRGB"
   inkscape:label="Colorize"
   id="filter471"
   x="-2563.228"
   y="-3669.6668"
   width="4523.0052"
   height="6475.2987"><feComposite
     in2="SourceGraphic"
     operator="arithmetic"
     k1="2.77556e-17"
     k2="1"
     result="composite1"
     id="feComposite470"
     k3="0"
     k4="0" /><feColorMatrix
     in="composite1"
     values="1"
     type="saturate"
     result="colormatrix1"
     id="feColorMatrix470" /><feFlood
     flood-opacity="1"
     flood-color="rgb(255,193,119)"
     result="flood1"
     id="feFlood470" /><feBlend
     in="flood1"
     in2="colormatrix1"
     mode="screen"
     result="blend1"
     id="feBlend470" /><feBlend
     in2="blend1"
     mode="multiply"
     result="blend2"
     id="feBlend471" /><feColorMatrix
     in="blend2"
     values="1"
     type="saturate"
     result="colormatrix2"
     id="feColorMatrix471" /><feComposite
     in="colormatrix2"
     in2="SourceGraphic"
     operator="in"
     result="composite2"
     id="feComposite471" /></filter><filter
   style="color-interpolation-filters:sRGB"
   inkscape:label="Colorize"
   id="filter559"
   x="0"
   y="4.8333089e-06"
   width="0.99999425"
   height="0.99998263"><feComposite
     in2="SourceGraphic"
     operator="arithmetic"
     k1="2.77556e-17"
     k2="1"
     result="composite1"
     id="feComposite558"
     k3="0"
     k4="0" /><feColorMatrix
     in="composite1"
     values="1"
     type="saturate"
     result="colormatrix1"
     id="feColorMatrix558" /><feFlood
     flood-opacity="1"
     flood-color="rgb(254,190,152)"
     result="flood1"
     id="feFlood558" /><feBlend
     in="flood1"
     in2="colormatrix1"
     mode="lighten"
     result="blend1"
     id="feBlend558" /><feBlend
     in2="blend1"
     mode="multiply"
     result="blend2"
     id="feBlend559" /><feColorMatrix
     in="blend2"
     values="1"
     type="saturate"
     result="colormatrix2"
     id="feColorMatrix559" /><feComposite
     in="colormatrix2"
     in2="SourceGraphic"
     operator="in"
     result="composite2"
     id="feComposite559" /></filter><filter
   style="color-interpolation-filters:sRGB"
   inkscape:label="Lightness-Contrast"
   id="filter572"
   x="0"
   y="0"
   width="1"
   height="1"><feColorMatrix
     values="1 0 0 -0.33000000000000002 -0 0 1 0 -0.33000000000000002 -0 0 0 1 -0.33000000000000002 -0 0 0 0 1 0"
     id="feColorMatrix572" /></filter><filter
   style="color-interpolation-filters:sRGB"
   inkscape:label="Colorize"
   id="filter674"
   x="-0.028780027"
   y="-0.015731702"
   width="1.0575601"
   height="1.0314634"><feComposite
     in2="SourceGraphic"
     operator="arithmetic"
     k1="2.77556e-17"
     k2="1"
     result="composite1"
     id="feComposite673"
     k3="0"
     k4="0" /><feColorMatrix
     in="composite1"
     values="1"
     type="saturate"
     result="colormatrix1"
     id="feColorMatrix673" /><feFlood
     flood-opacity="1"
     flood-color="rgb(255,193,119)"
     result="flood1"
     id="feFlood673" /><feBlend
     in="flood1"
     in2="colormatrix1"
     mode="screen"
     result="blend1"
     id="feBlend673" /><feBlend
     in2="blend1"
     mode="multiply"
     result="blend2"
     id="feBlend674" /><feColorMatrix
     in="blend2"
     values="1"
     type="saturate"
     result="colormatrix2"
     id="feColorMatrix674" /><feComposite
     in="colormatrix2"
     in2="SourceGraphic"
     operator="in"
     result="composite2"
     id="feComposite674" /><feGaussianBlur
     stdDeviation="9.44 3.604"
     id="feGaussianBlur674" /></filter></defs>
  <g
   id="g45546"
   inkscape:label="IDE"
   transform="matrix(0.22180877,0,0,-0.22180877,87.781237,362.42148)"
   style="display:inline"><g
     id="g1"
     inkscape:label="fond"
     transform="matrix(5.635485,0,0,5.635485,-1699.634,-1028.8864)"
     style="display:none"><g
       id="g20"
       transform="translate(571.64,302.39)"
       style="display:inline;fill:url(#radialGradient301)">
          <path
   id="path22"
   fill="#00caf0"
   d="M -0.27,0.17494344 C -0.27,-93.692427 -76.381559,-169.78009 -170.265,-169.78009 c -93.88445,0 -170.005,76.083666 -170.005,169.95503344 C -340.27,94.035322 -264.15344,170.12 -170.265,170.12 -76.381559,170.12 -0.27,94.035322 -0.27,0.17494344"
   style="fill:url(#radialGradient309);fill-opacity:1;stroke-width:0.999091" />
        </g></g><g
     id="g2"
     inkscape:label="IDE 2eme plan"
     transform="matrix(1.29425,0,0,1.29425,-31.423774,-231.24736)"
     style="display:inline;filter:url(#filter572)"><path
       d="m 381.639,487.971 h 713.084 V 984.278 H 381.639 Z"
       style="display:inline;opacity:0.72;fill:#5a5e63;fill-opacity:1;fill-rule:evenodd;stroke:none;filter:url(#filter572)"
       id="path45548-0"
       transform="matrix(0.88275909,0,0,1,128.4478,0.17968234)" /><path
       d="m 381.639,895.856 h 713.084 v 12.362 H 381.639 Z"
       style="display:inline;fill:#4a4f54;fill-opacity:1;fill-rule:evenodd;stroke:none;filter:url(#filter572)"
       id="path45550-5"
       transform="matrix(0.88275909,0,0,1,128.4478,0.17968234)" /><path
       d="m 381.639,908.214 h 713.084 v 76.063 H 381.639 Z"
       style="display:inline;fill:#787c80;fill-opacity:1;fill-rule:evenodd;stroke:none;filter:url(#filter572)"
       id="path45552-2"
       transform="matrix(0.88275909,0,0,1,128.4478,0.17968234)" /><path
       d="m 947,928.418 h 35.656 v 35.656 H 947 Z"
       style="fill:#e6e6e6;fill-opacity:0.5;fill-rule:evenodd;stroke:none"
       id="path45554" /><path
       d="m 992,928.418 h 35.656 v 35.656 H 992 Z"
       style="fill:#e6e6e6;fill-opacity:0.5;fill-rule:evenodd;stroke:none"
       id="path1" /><path
       d="m 1037,928.418 h 35.656 v 35.656 H 1037 Z"
       style="fill:#e6e6e6;fill-opacity:0.5;fill-rule:evenodd;stroke:none"
       id="path2" /></g><g
     id="g10"
     transform="matrix(2.8007608,-0.01963717,0.02033671,2.7044209,-562.68095,110.37626)"
     inkscape:label="booster"
     style="display:inline;filter:url(#filter471)">
    
  <g
   id="g172"
   style="display:inline;filter:url(#filter471)"
   transform="matrix(1.0141633,7.9871314e-4,7.9871158e-4,0.90417096,-5.9456041,29.087971)">
          
        <path
   id="path676"
   style="display:inline;opacity:1;fill:#000be3;fill-opacity:1;fill-rule:nonzero;stroke-width:1.00004;stroke-dasharray:none;filter:url(#filter674)"
   d="M 7.3527921,110.56757 C 7.854554,107.07531 3.8868068,113.38922 4.4672035,109.92226 5.2588528,105.19338 14.388383,90.807326 15.323881,86.127988 54.876679,-111.7143 218.02273,-264.78245 405.39369,-259.34496 c 172.02892,4.99227 319.481,135.96166 370.44962,319.583285 0.70789,2.550289 7.46086,18.581556 9.27863,23.539012 2.12173,5.786441 5.86832,12.421511 6.43876,15.485222 0.62803,3.373021 -3.81939,-3.574608 -3.263,-0.176405 -26.80394,-2.78748 -58.48328,-23.963225 -64.02621,-52.816214 -12.76203,8.6374 -20.41543,13.706685 -36.39914,13.590626 -45.01151,-0.326835 -81.31668,-40.528713 -82.78193,-90.526309 -6.0939,1.998564 -12.53626,3.088522 -19.20752,3.040081 -30.33663,-0.220279 -55.73699,-23.124578 -63.6395,-54.259072 -17.82717,15.240414 -40.05373,24.317718 -64.18676,24.142485 -0.48955,-0.0036 -0.96187,-0.07769 -1.44974,-0.08878 L 418.69076,290.33431 376.67005,290.33397 351.5665,-46.756924 c -10.57213,6.441291 -22.61789,10.202251 -35.50313,10.108689 -15.29523,-0.111061 -29.45811,-5.427893 -41.17784,-14.438105 -7.50598,11.024131 -19.33831,18.13375 -32.65259,18.037073 -2.4838,-0.01803 -4.8975,-0.327158 -7.25332,-0.818725 -8.3134,44.22517 -43.43406,77.307619 -85.26149,77.003904 -5.71722,-0.04151 -11.28326,-0.739422 -16.68168,-1.962136 0.019,0.614301 0.0756,1.216852 0.0711,1.841524 -0.1933,26.61579 -19.58387,48.041142 -43.300972,47.86893 C 79.032497,90.805997 69.243813,86.257811 61.756517,78.851974 52.637513,96.515676 26.34146,108.53557 7.3527921,110.56757 Z"
   transform="matrix(0.83719409,-2.6873451e-4,-2.6872642e-4,0.87420187,66.854637,44.535766)"
   sodipodi:nodetypes="cssssssccscscsccccscscsccscc" /></g></g><g
     id="g715"
     transform="matrix(2.7048468,-0.01964021,0.01964021,2.7048468,-528.71457,110.34325)"
     inkscape:label="navette"
     style="display:inline;filter:url(#filter471)">
    <g
   id="g714">
      <g
   id="g713"
   clip-path="url(#clipPath16)"
   style="display:inline">
        
        
        
        
        
        
        
        
        <g
   id="g689"
   transform="translate(337.13,352.52999)"
   style="display:inline;filter:url(#filter471)">
          <path
   id="path689"
   fill="#e67000"
   d="m 0,0 c 4.222,9.415 17.499,22.846 18.062,23.413 0.489,0.495 1.206,0.677 1.874,0.492 0.666,-0.189 1.177,-0.725 1.334,-1.402 l 17.657,-76.414 c 0.14,-0.604 -0.023,-1.237 -0.436,-1.695 -0.412,-0.467 -1.023,-0.707 -1.638,-0.625 -0.007,0 -0.903,0.1 -2.363,0.1 -6.41,0 -21.854,-1.854 -26.794,-19.029 -0.22,-0.762 -0.885,-1.31 -1.675,-1.374 -0.052,-0.002 -0.105,-0.002 -0.157,-0.002 -0.727,0 -1.4,0.415 -1.718,1.083 C -11.901,-41.758 -4.287,-9.562 0,0"
   style="fill:#d27e4b;fill-opacity:1" />
        </g>
        <g
   id="g690"
   transform="translate(425.29,296.55)"
   style="display:inline">
          <path
   id="path690"
   fill="#bf5d00"
   d="m 0,0 c -0.439,0.361 -1.014,0.51 -1.575,0.399 -4.53,-0.891 -12.063,-1.95 -22.251,-1.95 -10.189,0 -17.724,1.059 -22.25,1.95 -0.559,0.111 -1.136,-0.034 -1.577,-0.399 -0.441,-0.364 -0.696,-0.902 -0.696,-1.469 v -10.318 c 0,-0.938 0.68,-1.734 1.604,-1.881 0.513,-0.082 12.685,-2.011 22.919,-2.011 10.232,0 22.404,1.929 22.919,2.011 0.922,0.147 1.604,0.943 1.604,1.881 V -1.469 C 0.697,-0.902 0.442,-0.364 0,0"
   style="fill:#705343;fill-opacity:1" />
        </g>
        <g
   id="g696"
   style="display:inline">
          <g
   id="g695">
            <g
   id="g694"
   opacity="0.2"
   clip-path="url(#clipPath280)">
              <g
   id="g693">
                <g
   id="g692"
   clip-path="url(#clipPath284)">
                  <g
   id="g691"
   transform="translate(425.29,297.12)">
                    <path
   id="path691"
   fill="#231f20"
   d="m 0,0 c -0.439,0.36 -1.014,0.51 -1.575,0.397 -4.53,-0.891 -12.063,-1.952 -22.251,-1.952 -10.189,0 -17.724,1.061 -22.25,1.952 -0.559,0.115 -1.136,-0.037 -1.577,-0.397 -0.441,-0.363 -0.696,-0.903 -0.696,-1.47 v -5.717 c 0,0.572 0.255,1.111 0.696,1.47 0.441,0.364 1.018,0.515 1.577,0.402 4.526,-0.892 12.061,-1.953 22.25,-1.953 10.188,0 17.721,1.061 22.251,1.953 0.561,0.11 1.136,-0.039 1.575,-0.402 0.442,-0.359 0.697,-0.898 0.697,-1.47 V -1.47 C 0.697,-0.903 0.442,-0.363 0,0"
   style="fill:#000000;fill-opacity:1" />
                  </g>
                </g>
              </g>
            </g>
          </g>
        </g>
        <g
   id="g697"
   transform="translate(401.46,496.26)"
   style="display:inline">
          <path
   id="path696"
   fill="#ff7c00"
   d="m 0,0 c -9.34,0 -47.653,-48.961 -47.653,-106.66 0,-55.951 16.9,-91.826 17.071,-92.204 0.214,-0.468 0.61,-0.835 1.099,-1.004 0.419,-0.15 10.525,-3.651 29.483,-3.651 18.955,0 29.062,3.501 29.485,3.651 0.486,0.169 0.884,0.536 1.095,1.004 0.173,0.378 17.072,36.253 17.072,92.204 C 47.652,-48.961 9.339,0 0,0"
   style="fill:#ff9457;fill-opacity:1" />
        </g>
        
        
        
        
        
        
        
        <g
   id="g705"
   transform="translate(465.44,352.53)">
          <path
   id="path704"
   fill="#ff7c00"
   d="m 0,0 c -4.22,9.415 -17.497,22.846 -18.062,23.413 -0.487,0.495 -1.206,0.677 -1.873,0.492 -0.666,-0.189 -1.176,-0.725 -1.333,-1.402 l -17.658,-76.414 c -0.139,-0.604 0.024,-1.237 0.437,-1.695 0.411,-0.467 1.023,-0.707 1.638,-0.625 0.009,0 0.903,0.1 2.364,0.1 6.408,0 21.851,-1.854 26.795,-19.029 0.215,-0.762 0.883,-1.31 1.671,-1.374 0.052,-0.002 0.106,-0.002 0.159,-0.002 0.729,0 1.397,0.415 1.719,1.083 C 11.901,-41.758 4.287,-9.562 0,0"
   style="fill:#fb975b;fill-opacity:1" />
        </g>
        <g
   id="g706"
   transform="translate(435.45,451.2)">
          <path
   id="path705"
   fill="#ff9633"
   d="m 0,0 c 6.474,-16.294 9.882,-50.928 6.101,-74.519 3.557,-3.721 13.237,-14.248 16.731,-22.039 4.141,-9.24 11.382,-39.592 -2.592,-72.017 0.815,-1.587 1.531,-3.333 2.102,-5.303 0.219,-0.762 0.884,-1.309 1.675,-1.374 0.052,-0.005 0.102,-0.005 0.155,-0.005 0.728,0 1.4,0.418 1.718,1.086 16.048,33.695 8.435,65.892 4.145,75.456 -3.492,7.791 -13.177,18.316 -16.731,22.039 0.264,4.832 0.413,9.847 0.413,15.035 0,22.718 -5.942,44.085 -13.717,61.64"
   style="fill:#ffac70;fill-opacity:1" />
        </g>
        <g
   id="g712"
   style="display:inline">
          <g
   id="g711">
            <g
   id="g710"
   opacity="0.2"
   clip-path="url(#clipPath344)">
              <g
   id="g709">
                <g
   id="g708"
   clip-path="url(#clipPath348)">
                  <g
   id="g707"
   transform="translate(365.62,377.8)">
                    <path
   id="path706"
   fill="#231f20"
   d="m 0,0 c 0,57.692 38.313,106.66 47.654,106.66 0.876,0 2.014,-0.438 3.349,-1.269 -6.51,8.311 -12.246,13.078 -15.16,13.078 -9.34,0 -47.653,-48.961 -47.653,-106.66 0,-55.951 16.9,-91.826 17.071,-92.204 0.214,-0.468 0.61,-0.835 1.099,-1.004 0.201,-0.071 2.617,-0.9 7.112,-1.751 C 8.464,-69.135 0,-39.607 0,-0.001"
   style="display:inline;fill:#000000;fill-opacity:1" />
                  </g>
                </g>
              </g>
            </g>
          </g>
        </g><g
   id="g698"
   transform="translate(429.37,463.52)"
   style="display:inline;filter:url(#filter471);mix-blend-mode:normal">
          <path
   id="path697"
   fill="#bf5d00"
   d="M 0,0 C -11.005,20.058 -23.084,32.742 -27.902,32.742 -32.723,32.742 -44.8,20.058 -55.805,0 -52.679,-0.92 -43.538,-3.163 -27.902,-3.163 -12.267,-3.163 -3.125,-0.92 0,0"
   style="fill:#705343;fill-opacity:1" />
        </g>
      </g>
    </g>
  </g><g
     id="g45568"
     clip-path="url(#clipPath45572)"
     inkscape:label="IDE 1er plan complet"
     transform="matrix(1.3537128,0,0,1.3537128,-404.44471,-302.24938)"
     style="display:inline"><path
       d="m 215.56129,220.63393 h 693.5307 V 778.29356 H 107.85882 V 358.18837 c 30.18946,-50.23887 66.40371,-96.43929 107.70247,-137.55444 z"
       style="display:inline;opacity:0.98;fill:#2b2f33;fill-opacity:1;stroke-width:4.15965"
       id="path291" /><path
       d="M 107.90814,692.759 H 909.094 v 85.533 H 107.90814 Z"
       style="fill:#40454a;fill-opacity:1;fill-rule:evenodd;stroke:none;stroke-width:0.999568"
       id="path45562" /><path
       d="M 107.90814,678.858 H 909.094 v 13.898 H 107.90814 Z"
       style="fill:#212426;fill-opacity:1;fill-rule:evenodd;stroke:none;stroke-width:0.999568"
       id="path45564" /><g
       id="g45574"
       transform="translate(136.7852,660.9521)"><path
         id="path45576"
         style="fill:#a7bf1c;fill-opacity:1;fill-rule:evenodd;stroke:none"
         d="m 0.00168707,-0.0026539 c -2.65498117,0 -4.81345047,-2.1584694 -4.81345047,-4.8134505 0,-2.6559811 2.1584693,-4.8134505 4.81345047,-4.8134505 2.65498113,0 4.81345053,2.1574694 4.81345053,4.8134505 0,2.6549811 -2.1584694,4.8134505 -4.81345053,4.8134505 z m 0,-25.0104291 c -2.65498117,0 -4.81345047,-2.151966 -4.81345047,-4.806945 0,-2.655986 2.1584693,-4.819956 4.81345047,-4.819956 2.65498113,0 4.81345053,2.16397 4.81345053,4.819956 0,2.654979 -2.1584694,4.806945 -4.81345053,4.806945 z m 0,-25.010428 c -2.65598117,0 -4.81345047,-2.154465 -4.81345047,-4.813451 0,-2.654979 2.1574693,-4.806945 4.81345047,-4.806945 2.65498113,0 4.81345053,2.151966 4.81345053,4.806945 0,2.658986 -2.1584694,4.813451 -4.81345053,4.813451 z m 0,-25.010429 c -2.65598117,0 -4.81345047,-2.154471 -4.81345047,-4.81345 0,-2.654986 2.1574693,-4.806946 4.81345047,-4.806946 2.65498113,0 4.81345053,2.15196 4.81345053,4.806946 0,2.658979 -2.1584694,4.81345 -4.81345053,4.81345 z m 0,-25.01043 c -2.65598117,0 -4.81345047,-2.15445 -4.81345047,-4.81345 0,-2.66 2.1574693,-4.80694 4.81345047,-4.80694 2.65498113,0 4.81345053,2.14694 4.81345053,4.80694 0,2.659 -2.1584694,4.81345 -4.81345053,4.81345 z m 0,-25.01043 c -2.65598117,0 -4.81345047,-2.15445 -4.81345047,-4.81345 0,-2.65893 2.1574693,-4.80694 4.81345047,-4.80694 2.65498113,0 4.81345053,2.14801 4.81345053,4.80694 0,2.659 -2.1584694,4.81345 -4.81345053,4.81345 z m 0,-25.01043 c -2.65598117,0 -4.81345047,-2.15845 -4.81345047,-4.81345 0,-2.65893 2.1574693,-4.80694 4.81345047,-4.80694 2.65498113,0 4.81345053,2.14801 4.81345053,4.80694 0,2.655 -2.1584694,4.81345 -4.81345053,4.81345 z m 0,-25.01042 c -2.65598117,0 -4.81345047,-2.15752 -4.81345047,-4.81345 0,-2.659 2.1574693,-4.80695 4.81345047,-4.80695 2.65498113,0 4.81345053,2.14795 4.81345053,4.80695 0,2.65593 -2.1584694,4.81345 -4.81345053,4.81345 z m 0,-25.01043 c -2.65598117,0 -4.81345047,-2.15852 -4.81345047,-4.81345 0,-2.656 2.1574693,-4.80695 4.81345047,-4.80695 2.65498113,0 4.81345053,2.15095 4.81345053,4.80695 0,2.65493 -2.1584694,4.81345 -4.81345053,4.81345 z m 0,-25.01694 c -2.65598117,0 -4.81345047,-2.15194 -4.81345047,-4.80694 0,-2.655 2.1574693,-4.80695 4.81345047,-4.80695 2.65498113,0 4.81345053,2.15195 4.81345053,4.80695 0,2.655 -2.1584694,4.80694 -4.81345053,4.80694 z m 0,-25.00392 c -2.65598117,0 -4.81345047,-2.15845 -4.81345047,-4.81345 0,-2.659 2.1574693,-4.80695 4.81345047,-4.80695 2.65498113,0 4.81345053,2.14795 4.81345053,4.80695 0,2.655 -2.1584694,4.81345 -4.81345053,4.81345 z m 0,-25.01043 c -2.65598117,0 -4.81345047,-2.15745 -4.81345047,-4.81345 0,-2.659 2.1574693,-4.81345 4.81345047,-4.81345 2.65498113,0 4.81345053,2.15445 4.81345053,4.81345 0,2.656 -2.1584694,4.81345 -4.81345053,4.81345 z m 0,-25.01043 c -2.65598117,0 -4.81345047,-2.15445 -4.81345047,-4.81345 0,-2.65593 2.1574693,-4.81345 4.81345047,-4.81345 2.65498113,0 4.81345053,2.15752 4.81345053,4.81345 0.001,2.659 -2.1584694,4.81345 -4.81345053,4.81345 z m 0,-25.01043 c -2.65598117,0 -4.81345047,-2.15445 -4.81345047,-4.81345 0,-2.65493 2.1574693,-4.81345 4.81345047,-4.81345 2.65498113,0 4.81345053,2.15852 4.81345053,4.81345 0,2.659 -2.1584694,4.81345 -4.81345053,4.81345 z" /></g><path
       d="m 203.033,461.935 h 77.372 v -11.76 h -77.372 z m 0,-100.043 h 77.372 v -11.76 h -77.372 z m 0,150.066 h 77.372 v -11.764 h -77.372 z"
       style="fill:#ff9966;fill-opacity:1;fill-rule:evenodd;stroke:none"
       id="path45578" /><path
       d="m 203.033,637.007 h 77.372 V 625.25 h -77.372 z"
       style="fill:#ff9966;fill-opacity:1;fill-rule:evenodd;stroke:none"
       id="path45580" /><path
       d="M 350.973,311.872 H 601.5 V 300.108 H 350.973 Z M 160.511,662.017 H 626.548 V 650.26 H 160.511 Z"
       style="fill:#69954c;fill-opacity:1;fill-rule:evenodd;stroke:none"
       id="path45582" /><path
       d="m 160.511,486.944 h 12.421 v -11.76 h -12.421 z"
       style="fill:#69954c;fill-opacity:1;fill-rule:evenodd;stroke:none"
       id="path45584" /><path
       d="m 409.499,286.858 h 48.555 v -11.76 h -48.555 z"
       style="fill:#e6e6e6;fill-opacity:1;fill-rule:evenodd;stroke:none"
       id="path45586" /><path
       d="m 256.019,286.858 h 41.834 v -11.76 h -41.834 z"
       style="fill:#e6e6e6;fill-opacity:1;fill-rule:evenodd;stroke:none"
       id="path45588" /><path
       d="m 246.28,311.872 h 87.211 V 300.108 H 246.28 Z"
       style="fill:#e6e6e6;fill-opacity:1;fill-rule:evenodd;stroke:none"
       id="path45590" /><path
       d="m 203.033,311.872 h 25.769 v -11.764 h -25.769 z"
       style="fill:#e6e6e6;fill-opacity:1;fill-rule:evenodd;stroke:none"
       id="path45592" /><g
       id="g45594"
       transform="translate(508.2295,336.8818)"><path
         d="M 0,0 H 56.74 V -11.76 L 0,-11.761 Z"
         style="fill:#e6e6e6;fill-opacity:1;fill-rule:evenodd;stroke:none"
         id="path45596" /></g><path
       d="M 372.352,336.882 H 490.748 V 325.121 H 372.352 Z"
       style="fill:#e6e6e6;fill-opacity:1;fill-rule:evenodd;stroke:none"
       id="path45598" /><path
       d="m 263.213,336.882 h 91.662 v -11.761 h -91.662 z"
       style="fill:#99ad4d;fill-opacity:1;fill-rule:evenodd;stroke:none"
       id="path45600" /><path
       d="M 203.033,336.882 H 245.73 V 325.121 H 203.033 Z"
       style="fill:#e6e6e6;fill-opacity:1;fill-rule:evenodd;stroke:none"
       id="path45602" /><path
       d="m 343.846,386.901 h 42.039 v -11.76 h -42.039 z"
       style="fill:#4193ec;fill-opacity:1;fill-rule:evenodd;stroke:none"
       id="path45604" /><path
       d="m 256.019,386.901 h 70.345 v -11.76 h -70.345 z"
       style="fill:#e6e6e6;fill-opacity:1;fill-rule:evenodd;stroke:none"
       id="path45606" /><path
       d="M 402.371,411.915 H 570.177 V 400.151 H 402.371 Z"
       style="fill:#e6e6e6;fill-opacity:1;fill-rule:evenodd;stroke:none"
       id="path45608" /><path
       d="m 308.203,411.915 h 76.686 v -11.764 h -76.686 z"
       style="fill:#e6e6e6;fill-opacity:1;fill-rule:evenodd;stroke:none"
       id="path45610" /><path
       d="m 256.019,411.915 h 34.706 v -11.764 h -34.706 z"
       style="fill:#e6e6e6;fill-opacity:1;fill-rule:evenodd;stroke:none"
       id="path45612" /><path
       d="m 427.583,436.925 h 10.869 v -11.761 h -10.869 z"
       style="fill:#e6e6e6;fill-opacity:1;fill-rule:evenodd;stroke:none"
       id="path45614" /><path
       d="m 382.144,436.925 h 27.957 v -11.761 h -27.957 z"
       style="fill:#e6e6e6;fill-opacity:1;fill-rule:evenodd;stroke:none"
       id="path45616" /><path
       d="m 256.019,436.925 h 59.417 v -11.761 h -59.417 z"
       style="fill:#e6e6e6;fill-opacity:1;fill-rule:evenodd;stroke:none"
       id="path45618" /><path
       d="M 368.775,536.968 H 495.913 V 525.204 H 368.775 Z"
       style="fill:#cccccc;fill-opacity:1;fill-rule:evenodd;stroke:none"
       id="path45620" /><path
       d="m 405.218,261.849 h 9.178 v -11.76 h -9.178 z m -87.761,0 h 70.279 v -11.76 h -70.279 z m -114.424,0 h 96.942 v -11.76 h -96.942 z m 52.986,275.119 h 95.274 v -11.764 h -95.274 z"
       style="fill:#c176a4;fill-opacity:1;fill-rule:evenodd;stroke:none"
       id="path45622" /><path
       d="m 315.334,286.858 h 76.683 v -11.76 h -76.683 z m 17.583,150.067 h 31.744 v -11.761 h -31.744 z m 39.426,125.052 h 90.325 v -11.764 h -90.325 z"
       style="fill:#4193ec;fill-opacity:1;fill-rule:evenodd;stroke:none"
       id="path45624" /><path
       d="M 291.487,561.977 H 354.86 V 550.213 H 291.487 Z"
       style="fill:#cccccc;fill-opacity:1;fill-rule:evenodd;stroke:none"
       id="path45626" /><path
       d="m 256.019,561.977 h 17.986 v -11.764 h -17.986 z"
       style="fill:#cccccc;fill-opacity:1;fill-rule:evenodd;stroke:none"
       id="path45628" /><path
       d="m 439.166,586.987 h 33.916 v -11.76 h -33.916 z"
       style="fill:#cccccc;fill-opacity:1;fill-rule:evenodd;stroke:none"
       id="path45630" /><path
       d="m 393.723,586.987 h 27.961 v -11.76 h -27.961 z"
       style="fill:#cccccc;fill-opacity:1;fill-rule:evenodd;stroke:none"
       id="path45632" /><path
       d="m 344.5,586.987 h 31.744 v -11.76 H 344.5 Z"
       style="fill:#cccccc;fill-opacity:1;fill-rule:evenodd;stroke:none"
       id="path45634" /><path
       d="m 256.019,586.987 h 70.999 v -11.76 h -70.999 z"
       style="fill:#4193ec;fill-opacity:1;fill-rule:evenodd;stroke:none"
       id="path45636" /><path
       d="m 404.418,611.997 h 90.325 V 600.24 h -90.325 z"
       style="fill:#cccccc;fill-opacity:1;fill-rule:evenodd;stroke:none"
       id="path45638" /><path
       d="m 323.561,611.997 h 63.374 V 600.24 h -63.374 z"
       style="fill:#cccccc;fill-opacity:1;fill-rule:evenodd;stroke:none"
       id="path45640" /><path
       d="M 256.019,611.997 H 306.08 V 600.24 h -50.061 z"
       style="fill:#cccccc;fill-opacity:1;fill-rule:evenodd;stroke:none"
       id="path45642" /><path
       d="m 745,715.476 h 40.094 V 755.57 H 745 Z"
       style="fill:#bababa;fill-opacity:0.5;fill-rule:evenodd;stroke:none"
       id="path45644" /><path
       d="m 795,715.476 h 40.094 V 755.57 H 795 Z"
       style="fill:#bababa;fill-opacity:0.5;fill-rule:evenodd;stroke:none"
       id="path3" /><path
       d="m 845,715.476 h 40.094 V 755.57 H 845 Z"
       style="fill:#bababa;fill-opacity:0.5;fill-rule:evenodd;stroke:none"
       id="path4" /></g><g
     id="g24"
     style="display:inline;filter:url(#filter559)"
     transform="matrix(5.635485,0,0,5.635485,-1699.634,-1028.8864)"
     inkscape:label="fumee">
          <g
   id="g36">
            <g
   id="g38"
   opacity="0.8"
   clip-path="url(#clipPath28)"
   style="opacity:1">
              <g
   id="g40">
                <g
   id="g42"
   clip-path="url(#clipPath32)">
                  <g
   id="g44"
   transform="translate(401.52,132.26)">
                    <path
   d="m 167.19193,138.79932 c -0.70643,0.0567 -1.415,0.10781 -2.13437,0.10781 -12.43499,0 -22.81701,-8.71182 -25.425,-20.35781 -5.404,3.312 -11.73551,5.25625 -18.5375,5.25625 -19.15498,0 -34.728255,-15.15165 -35.506254,-34.115626 -2.586997,0.774999 -5.325065,1.20625 -8.164063,1.20625 -12.909987,0 -23.789441,-8.619387 -27.248437,-20.409375 -7.538993,5.830994 -16.969073,9.335937 -27.239063,9.335937 -11.970988,0 -22.81769532,-4.74007 -30.8296873,-12.414062 -4.3499957,12.121987 -15.9071387,20.807812 -29.5281247,20.807812 -6.508994,0 -12.552193,-1.978066 -17.567188,-5.364062 -3.159997,4.202995 -8.173068,6.932812 -13.839062,6.932812 -1.056999,0 -2.085064,-0.110625 -3.089063,-0.290625 -3.400997,16.800979 -18.243768,29.448439 -36.043748,29.448439 -2.433,0 -4.80369,-0.24944 -7.10469,-0.69844 0.01,0.233 0.0359,0.46144 0.0359,0.69844 0,10.09799 -8.18514,18.27969 -18.27813,18.27969 -4.58499,0 -8.76444,-1.69851 -11.97343,-4.4875 -4.217,7.41399 -12.17464,12.42656 -21.31563,12.42656 -0.569,0 -1.12594,-0.0464 -1.68594,-0.0844 0.72282,-4.89961 1.66733,-9.72546 2.79844,-14.47968 0.0724,-0.30393 0.13695,-0.61077 0.21094,-0.91407 0.50864,-2.08645 1.06834,-4.1523 1.65312,-6.20781 0.13994,-0.49158 0.27451,-0.98524 0.41875,-1.475 0.58082,-1.97332 1.20342,-3.9291 1.85313,-5.87187 0.17612,-0.52631 0.3517,-1.05257 0.53281,-1.57657 0.65591,-1.89887 1.34504,-3.78228 2.06563,-5.65 0.21522,-0.55752 0.43533,-1.11251 0.65625,-1.66718 0.73771,-1.85335 1.50124,-3.69346 2.30156,-5.51407 0.22291,-0.5068 0.45511,-1.0083 0.68281,-1.5125 0.83409,-1.847979 1.68847,-3.684751 2.58594,-5.496871 0.20591,-0.415551 0.42361,-0.823882 0.63281,-1.2375 0.9621,-1.903178 1.94276,-3.794983 2.97344,-5.65625 0.0527,-0.09521 0.10957,-0.187719 0.1625,-0.282813 4.54827,-8.176444 9.7668,-15.9259 15.55312,-23.203125 0.38677,-0.486192 0.75961,-0.983785 1.15157,-1.465625 1.092,-1.343044 2.22299,-2.652317 3.35468,-3.960937 0.56708,-0.655429 1.1247,-1.319007 1.70157,-1.965625 1.08554,-1.217357 2.20067,-2.406635 3.32031,-3.592188 0.66696,-0.705906 1.3321,-1.413402 2.01094,-2.107812 1.08597,-1.111374 2.19353,-2.201415 3.30937,-3.282813 0.75942,-0.735653 1.52233,-1.467544 2.29531,-2.189062 1.09387,-1.021469 2.20133,-2.027671 3.32188,-3.020313 0.82999,-0.734943 1.66972,-1.459271 2.51406,-2.178125 1.11461,-0.949338 2.23586,-1.891702 3.375,-2.8125 0.89229,-0.720966 1.79922,-1.423401 2.70625,-2.126563 1.13856,-0.883014 2.27774,-1.76584 3.43906,-2.620312 0.951099,-0.699498 1.92147,-1.373082 2.887503,-2.053125 1.145066,-0.806405 2.284377,-1.619824 3.45,-2.398438 1.047757,-0.699593 2.120389,-1.363845 3.184375,-2.040625 1.135739,-0.722709 2.260231,-1.461521 3.414062,-2.157812 1.32319,-0.798173 2.677073,-1.549656 4.023438,-2.3125 1.631542,-0.924784 3.277629,-1.825033 4.942187,-2.696875 1.523494,-0.797647 3.043537,-1.600726 4.59375,-2.353125 1.03306,-0.501593 2.089764,-0.96102 3.134375,-1.442188 1.356369,-0.624527 2.709049,-1.257273 4.084376,-1.846875 1.0782,-0.462393 2.174512,-0.889076 3.264062,-1.329687 1.38339,-0.559233 2.766015,-1.120122 4.167188,-1.64375 1.087881,-0.406693 2.18919,-0.7853886 3.2875,-1.1703126 1.420843,-0.4977784 2.845033,-0.9875821 4.282812,-1.4484375 1.127677,-0.3615879 2.263769,-0.70363 3.401563,-1.0421875 1.434445,-0.4266669 2.874981,-0.838545 4.325,-1.228125 1.150389,-0.3091905 2.305734,-0.6050926 3.465625,-0.890625 1.473863,-0.3626832 2.956622,-0.7025717 4.445312,-1.0265625 1.150442,-0.2504701 2.301931,-0.4979389 3.460938,-0.725 1.556275,-0.3047643 3.124156,-0.5754814 4.695312,-0.8375 1.10679,-0.1846558 2.211084,-0.3774502 3.325,-0.540625 1.682356,-0.2463236 3.378596,-0.4470445 5.076563,-0.64375 1.028469,-0.1192138 2.051956,-0.25546521 3.085937,-0.35625001 1.925935,-0.18759563 3.868301,-0.3193545 5.8125,-0.4421875 0.820615,-0.0518933 1.634077,-0.13009563 2.4578127,-0.1703125 2.7913911,-0.13612416 5.598314,-0.21406250531 8.42343751,-0.21406250531 2.78159969,0 5.54484199,0.0789421153 8.29374999,0.21093750531 0.8984622,0.0431068 1.7865038,0.12268987 2.6812498,0.1796875 1.854857,0.11822216 3.707085,0.24467675 5.545313,0.421875 1.018762,0.0981873 2.028769,0.22610351 3.042187,0.34218751 1.700185,0.194774 3.396679,0.4007924 5.08125,0.6453125 1.068354,0.1550768 2.130375,0.3298424 3.192188,0.5046875 1.598943,0.2632817 3.191411,0.5455862 4.775,0.853125 1.094298,0.2125459 2.185188,0.4337642 3.271875,0.6671875 1.556603,0.3343073 3.10328,0.6952956 4.64375,1.071875 1.05762,0.258607 2.115876,0.5154613 3.165625,0.79375 1.57987,0.4187132 3.144767,0.8732571 4.70625,1.3359375 0.987052,0.292566 1.979911,0.5713355 2.959375,0.88125 1.700907,0.5380084 3.380492,1.1229412 5.057812,1.7125 0.80926,0.2845543 1.629212,0.5457871 2.432813,0.8421871 2.445088,0.901493 4.865445,1.85337 7.25625,2.8625 0.516618,0.218153 1.018816,0.46284 1.532812,0.685938 1.858757,0.806428 3.709199,1.629842 5.532813,2.5 0.998006,0.476444 1.975358,0.987594 2.9625,1.482812 1.332779,0.668278 2.665622,1.33552 3.978125,2.0375 1.07167,0.573476 2.126582,1.174695 3.184375,1.770313 1.171641,0.659378 2.341078,1.32169 3.495312,2.007812 1.126131,0.669779 2.239288,1.358266 3.348438,2.053125 1.055349,0.660793 2.104104,1.330926 3.14375,2.014063 1.141745,0.750654 2.276075,1.511865 3.398438,2.289062 0.964537,0.667527 1.917258,1.350692 2.867187,2.0375 1.144774,0.828174 2.287854,1.658317 3.410934,2.514063 0.8716,0.663724 1.72454,1.349636 2.58282,2.029687 1.16781,0.925873 2.34017,1.845942 3.48281,2.801563 0.65466,0.547176 1.28812,1.118217 1.93437,1.675 4.69083,4.043915 9.16699,8.328098 13.39063,12.854688 0.23886,0.255822 0.4877,0.50208 0.725,0.759375 1.28158,1.390515 2.52414,2.817234 3.75937,4.25 0.41826,0.484821 0.84497,0.961993 1.25782,1.451562 1.17202,1.390735 2.31132,2.809184 3.43906,4.2375 0.43095,0.545453 0.86468,1.088233 1.28906,1.639063 1.11721,1.451048 2.20879,2.923344 3.27969,4.410937 0.37937,0.526653 0.75465,1.056356 1.12812,1.5875 1.08757,1.547704 2.15547,3.110294 3.19219,4.695313 0.29865,0.456316 0.58844,0.918777 0.88281,1.378125 1.085,1.694128 2.15379,3.399943 3.17969,5.134375 0.13731,0.231994 0.26689,0.468861 0.40313,0.701562 5.98602,10.230981 10.93912,21.138384 14.70625,32.587504 0.0325,0.0988 0.0676,0.19641 0.1,0.29531 0.70384,2.15252 1.35872,4.32782 1.97812,6.51719 0.0802,0.28339 0.16186,0.566 0.24063,0.85 0.58879,2.1235 1.13605,4.26429 1.64375,6.42031 0.078,0.33123 0.15361,0.66333 0.22968,0.99531 0.49691,2.16881 0.95712,4.35046 1.37032,6.55 0.0163,0.0867 0.0307,0.17415 0.0469,0.26094 z"
   style="display:inline;opacity:0.088;fill:#ffffff"
   id="path307" />
                  </g>
                </g>
              </g>
            </g>
          </g>
        </g><g
     id="g144"
     style="display:inline;fill:#ffffc0;fill-opacity:1"
     transform="matrix(5.635485,0,0,5.635485,-1699.634,-1028.8864)"
     inkscape:label="etoiles">
          <g
   id="g156"
   inkscape:label="etoile"
   style="fill:#ffffc0;fill-opacity:1">
            <g
   id="g158"
   opacity="0.8"
   clip-path="url(#clipPath148)"
   style="opacity:0.5;fill:#ffffc0;fill-opacity:1">
              <g
   id="g160"
   style="fill:#ffffc0;fill-opacity:1">
                <g
   id="g162"
   clip-path="url(#clipPath152)"
   style="fill:#ffffc0;fill-opacity:1">
                  <g
   id="g164"
   transform="translate(511.71,316.9)"
   style="fill:#ffffc0;fill-opacity:1">
                    <path
   id="path166"
   fill="#ffffff"
   d="M 0,0 C -2.032,0 -3.687,1.652 -3.687,3.685 -3.687,3.915 -3.872,4.1 -4.103,4.1 -4.331,4.1 -4.516,3.915 -4.516,3.685 -4.516,1.652 -6.168,0 -8.202,0 c -0.229,0 -0.416,-0.185 -0.416,-0.416 0,-0.228 0.187,-0.415 0.416,-0.415 2.034,0 3.686,-1.652 3.686,-3.684 0,-0.229 0.185,-0.416 0.413,-0.416 0.231,0 0.416,0.187 0.416,0.416 0,2.032 1.655,3.684 3.687,3.684 0.229,0 0.413,0.187 0.413,0.415 C 0.413,-0.185 0.229,0 0,0"
   style="fill:#ffffc0;fill-opacity:1" />
                  </g>
                </g>
              </g>
            </g>
          </g>
        <g
   id="g48"
   style="display:inline;fill:#ffffc0;fill-opacity:1"
   transform="translate(-24.000008)"
   inkscape:label="etoile">
          <g
   id="g60"
   style="fill:#ffffc0;fill-opacity:1">
            <g
   id="g62"
   opacity="0.8"
   clip-path="url(#clipPath52)"
   style="opacity:1;fill:#ffffc0;fill-opacity:1">
              <g
   id="g64"
   style="fill:#ffffc0;fill-opacity:1">
                <g
   id="g66"
   clip-path="url(#clipPath56)"
   style="fill:#ffffc0;fill-opacity:1">
                  <g
   id="g68"
   transform="translate(524.62,380.43)"
   style="fill:#ffffc0;fill-opacity:1">
                    <path
   id="path70"
   fill="#ffffff"
   d="m 0,0 c -4.012,0 -7.275,3.261 -7.275,7.275 0,0.454 -0.368,0.819 -0.822,0.819 -0.452,0 -0.819,-0.365 -0.819,-0.819 C -8.916,3.261 -12.18,0 -16.191,0 c -0.452,0 -0.822,-0.368 -0.822,-0.822 0,-0.451 0.37,-0.819 0.822,-0.819 4.011,0 7.275,-3.264 7.275,-7.275 0,-0.454 0.367,-0.821 0.819,-0.821 0.454,0 0.822,0.367 0.822,0.821 0,4.011 3.263,7.275 7.275,7.275 0.453,0 0.818,0.368 0.818,0.819 C 0.818,-0.368 0.453,0 0,0"
   style="fill:#ffffc0;fill-opacity:1" />
                  </g>
                </g>
              </g>
            </g>
          </g>
        </g><g
   id="g96"
   style="display:inline;fill:#ffffc0;fill-opacity:1"
   transform="translate(-8.007856e-6,-16)"
   inkscape:label="etoile">
          <g
   id="g108"
   style="fill:#ffffc0;fill-opacity:1">
            <g
   id="g110"
   opacity="0.8"
   clip-path="url(#clipPath100)"
   style="opacity:0.5;fill:#ffffc0;fill-opacity:1"
   transform="translate(0,4.8)">
              <g
   id="g112"
   style="fill:#ffffc0;fill-opacity:1">
                <g
   id="g114"
   clip-path="url(#clipPath104)"
   style="fill:#ffffc0;fill-opacity:1">
                  <g
   id="g116"
   transform="translate(539.66,351.94)"
   style="fill:#ffffc0;fill-opacity:1">
                    <path
   id="path118"
   fill="#ffffff"
   d="m 0,0 c -2.63,0 -4.768,2.138 -4.768,4.765 0,0.298 -0.24,0.538 -0.538,0.538 -0.297,0 -0.536,-0.24 -0.536,-0.538 C -5.842,2.138 -7.981,0 -10.609,0 c -0.295,0 -0.538,-0.24 -0.538,-0.538 0,-0.295 0.243,-0.538 0.538,-0.538 2.628,0 4.767,-2.138 4.767,-4.765 0,-0.298 0.239,-0.538 0.536,-0.538 0.298,0 0.538,0.24 0.538,0.538 0,2.627 2.138,4.765 4.768,4.765 0.295,0 0.535,0.243 0.535,0.538 C 0.535,-0.24 0.295,0 0,0"
   style="fill:#ffffc0;fill-opacity:1" />
                  </g>
                </g>
              </g>
            </g>
          </g>
        </g><g
   id="g72"
   style="display:inline;fill:#ffffc0;fill-opacity:1"
   transform="translate(-8.007856e-6)"
   inkscape:label="etoile">
          <g
   id="g84"
   style="fill:#ffffc0;fill-opacity:1">
            <g
   id="g86"
   opacity="0.8"
   clip-path="url(#clipPath76)"
   style="opacity:1;fill:#ffffc0;fill-opacity:1">
              <g
   id="g88"
   style="fill:#ffffc0;fill-opacity:1">
                <g
   id="g90"
   clip-path="url(#clipPath80)"
   style="fill:#ffffc0;fill-opacity:1">
                  <g
   id="g92"
   transform="translate(302.44,405.55)"
   style="fill:#ffffc0;fill-opacity:1">
                    <path
   id="path94"
   fill="#ffffff"
   d="m 0,0 c -4.011,0 -7.275,3.262 -7.275,7.275 0,0.454 -0.368,0.819 -0.82,0.819 -0.453,0 -0.821,-0.365 -0.821,-0.819 C -8.916,3.262 -12.18,0 -16.19,0 c -0.453,0 -0.821,-0.367 -0.821,-0.821 0,-0.452 0.368,-0.819 0.821,-0.819 4.01,0 7.274,-3.264 7.274,-7.276 0,-0.453 0.368,-0.821 0.821,-0.821 0.452,0 0.82,0.368 0.82,0.821 0,4.012 3.264,7.276 7.275,7.276 0.453,0 0.82,0.367 0.82,0.819 C 0.82,-0.367 0.453,0 0,0"
   style="fill:#ffffc0;fill-opacity:1" />
                  </g>
                </g>
              </g>
            </g>
          </g>
        </g><g
   id="g120"
   style="display:inline;fill:#ffffc0;fill-opacity:1"
   transform="translate(-8.007856e-6)"
   inkscape:label="etoile">
          <g
   id="g132"
   style="fill:#ffffc0;fill-opacity:1">
            <g
   id="g134"
   opacity="0.8"
   clip-path="url(#clipPath124)"
   style="opacity:1;fill:#ffffc0;fill-opacity:1">
              <g
   id="g136"
   style="fill:#ffffc0;fill-opacity:1">
                <g
   id="g138"
   clip-path="url(#clipPath128)"
   style="fill:#ffffc0;fill-opacity:1">
                  <g
   id="g140"
   transform="translate(284.89,365.21)"
   style="fill:#ffffc0;fill-opacity:1">
                    <path
   id="path142"
   fill="#ffffff"
   d="m 0,0 c -2.629,0 -4.768,2.138 -4.768,4.765 0,0.298 -0.24,0.538 -0.537,0.538 -0.297,0 -0.536,-0.24 -0.536,-0.538 C -5.841,2.138 -7.98,0 -10.609,0 c -0.295,0 -0.537,-0.24 -0.537,-0.538 0,-0.295 0.242,-0.538 0.537,-0.538 2.629,0 4.768,-2.138 4.768,-4.765 0,-0.298 0.239,-0.538 0.536,-0.538 0.297,0 0.537,0.24 0.537,0.538 0,2.627 2.139,4.765 4.768,4.765 0.295,0 0.537,0.243 0.537,0.538 C 0.537,-0.24 0.295,0 0,0"
   style="fill:#ffffc0;fill-opacity:1" />
                  </g>
                </g>
              </g>
            </g>
          </g>
        </g></g><g
     id="g717"
     inkscape:label="hublots"
     style="display:inline;mix-blend-mode:normal;filter:url(#filter471)"
     transform="matrix(2.7048468,-0.01964021,0.01964021,2.7048468,-528.71457,110.34325)"><g
       id="g699"
       transform="translate(401.46,390.86)"
       style="display:inline">
          <path
   id="path698"
   fill="#ffffff"
   d="m 0,0 c -8.13,0 -14.745,6.614 -14.745,14.744 0,8.131 6.615,14.745 14.745,14.745 8.13,0 14.743,-6.614 14.743,-14.745 C 14.743,6.614 8.13,0 0,0"
   style="display:inline" />
        </g><g
       id="g700"
       transform="translate(401.46,421.35)"
       style="display:inline">
          <path
   id="path699"
   fill="#e66e00"
   d="m 0,0 c -8.682,0 -15.745,-7.063 -15.745,-15.746 0,-8.681 7.063,-15.743 15.745,-15.743 8.681,0 15.743,7.062 15.743,15.743 C 15.743,-7.063 8.681,0 0,0 m 0,-2 c 7.59,0 13.743,-6.153 13.743,-13.746 0,-7.589 -6.153,-13.743 -13.743,-13.743 -7.592,0 -13.745,6.154 -13.745,13.743 C -13.745,-8.153 -7.592,-2 0,-2"
   style="display:inline;fill:#f59862;fill-opacity:1" />
        </g><g
       id="g701"
       transform="translate(401.46,347.28)">
          <path
   id="path700"
   fill="#ffffff"
   d="m 0,0 c -5.506,0 -9.985,4.479 -9.985,9.983 0,5.506 4.479,9.985 9.985,9.985 5.505,0 9.983,-4.479 9.983,-9.985 C 9.983,4.479 5.505,0 0,0" />
        </g><g
       id="g702"
       transform="translate(401.46,368.25)">
          <path
   id="path701"
   fill="#e66e00"
   d="m 0,0 c -6.057,0 -10.985,-4.928 -10.985,-10.985 0,-6.057 4.928,-10.983 10.985,-10.983 6.057,0 10.983,4.926 10.983,10.983 C 10.983,-4.928 6.057,0 0,0 m 0,-2 c 4.963,0 8.983,-4.023 8.983,-8.985 0,-4.962 -4.02,-8.983 -8.983,-8.983 -4.962,0 -8.985,4.021 -8.985,8.983 C -8.985,-6.023 -4.962,-2 0,-2"
   style="display:inline;fill:#f59862;fill-opacity:1" />
        </g><g
       id="g703"
       transform="translate(390.39,402.94)"
       style="display:inline">
          <path
   id="path702"
   fill="#e6e7e8"
   d="m 0,0 c 0,7.592 6.153,13.746 13.744,13.746 3.115,0 5.976,-1.048 8.282,-2.794 -2.51,3.312 -6.473,5.46 -10.948,5.46 -7.592,0 -13.745,-6.154 -13.745,-13.746 0,-4.475 2.149,-8.44 5.463,-10.95 C 1.048,-5.979 0,-3.115 0,0" />
        </g><g
       id="g704"
       transform="translate(395.15,354.6)"
       inkscape:label="g704">
          <path
   id="path703"
   fill="#e6e7e8"
   d="m 0,0 c 0,4.962 4.023,8.985 8.984,8.985 1.797,0 3.464,-0.54 4.866,-1.448 -1.6,2.471 -4.369,4.114 -7.532,4.114 -4.962,0 -8.985,-4.023 -8.985,-8.985 0,-3.163 1.645,-5.935 4.118,-7.535 C 0.541,-3.463 0,-1.799 0,0" />
        </g></g></g>
<metadata
   id="metadata1"><rdf:RDF><cc:Work><dc:format>image/svg+xml</dc:format><dc:type
         rdf:resource="http://purl.org/dc/dcmitype/StillImage" /><dc:publisher><cc:Agent
           rdf:about="http://openclipart.org/"><dc:title>Openclipart</dc:title></cc:Agent></dc:publisher><dc:title>Rocket</dc:title><dc:date>2013-05-18T19:02:40</dc:date><dc:source>https://openclipart.org/detail/178310/rocket-by-williamtheaker-178310</dc:source><dc:creator><cc:Agent><dc:title>williamtheaker</dc:title></cc:Agent></dc:creator><dc:subject><rdf:Bag><rdf:li>astronaut</rdf:li><rdf:li>blast</rdf:li><rdf:li>blastoff</rdf:li><rdf:li>cosmonaut</rdf:li><rdf:li>flat</rdf:li><rdf:li>rocket</rdf:li><rdf:li>space</rdf:li><rdf:li>spaceship</rdf:li><rdf:li>taikonaut</rdf:li></rdf:Bag></dc:subject><cc:license
         rdf:resource="http://creativecommons.org/publicdomain/zero/1.0/" /><dc:description>A cartoon rocket by Alejandro Vizio and Aerolab. Used with permission, original file available here: http://dribbble.com/shots/1073470-Rocket-FREE-VECTOR</dc:description></cc:Work><cc:License
       rdf:about="http://creativecommons.org/publicdomain/zero/1.0/"><cc:permits
         rdf:resource="http://creativecommons.org/ns#Reproduction" /><cc:permits
         rdf:resource="http://creativecommons.org/ns#Distribution" /><cc:permits
         rdf:resource="http://creativecommons.org/ns#DerivativeWorks" /></cc:License></rdf:RDF></metadata></svg>
